<?xml version="1.0" encoding="UTF-8"?>
<svg xmlns="http://www.w3.org/2000/svg" width="100%" height="100%" viewBox="0 0 1000 750" preserveAspectRatio="xMidYMid meet">
  
  <!-- Background -->
  <rect width="100%" height="100%" fill="#0F172A"/>

  
  <!-- Current time-slot label (e.g., 16Q1) -->
  <g id="slot-label">
    <rect x="24" y="16" width="92" height="28" rx="8" ry="8" fill="#0F172A" stroke="#334155" stroke-width="1"/>
    <text id="cell-lab_SLOT" x="70" y="36" text-anchor="middle" font-family="Inter, system-ui, -apple-system, Segoe UI, Roboto, Arial, sans-serif" font-size="14" font-weight="700" fill="#E2E8F0">--</text>
  </g>
<!-- Quarter label (driven by dataRef: quarter_label) -->
  <text id="cell-quarter_label" x="500" y="42" text-anchor="middle"
        font-family="Inter, Arial, sans-serif" font-size="22" font-weight="700"
        fill="#E2E8F0"> </text>
  
  <!-- ============ EDGES ============ -->
  
  <!-- NL to DK (top horizontal) -->
  <g id="cell-edge_NL_DK_AB">
    <path d="M 280 110 C 450 50, 550 50, 720 110" fill="none" stroke="#4ADE80" stroke-width="3"/>
    <polygon points="720,110 705,100 705,120" fill="#4ADE80"/>
  </g>
  <g id="cell-edge_NL_DK_BA">
    <path d="M 720 140 C 550 200, 450 200, 280 140" fill="none" stroke="#60A5FA" stroke-width="3"/>
    <polygon points="280,140 295,130 295,150" fill="#60A5FA"/>
  </g>
  
  <!-- NL to BE (left vertical) -->
  <g id="cell-edge_NL_BE_AB">
    <path d="M 160 210 L 160 310" fill="none" stroke="#4ADE80" stroke-width="3"/>
    <polygon points="160,310 150,295 170,295" fill="#4ADE80"/>
  </g>
  <g id="cell-edge_NL_BE_BA">
    <path d="M 200 310 L 200 210" fill="none" stroke="#60A5FA" stroke-width="3"/>
    <polygon points="200,210 190,225 210,225" fill="#60A5FA"/>
  </g>
  
  <!-- NL to DE (diagonal) -->
  <g id="cell-edge_NL_DE_AB">
    <path d="M 280 170 L 720 320" fill="none" stroke="#4ADE80" stroke-width="3"/>
    <polygon points="720,320 700,320 710,305" fill="#4ADE80"/>
  </g>
  <g id="cell-edge_NL_DE_BA">
    <path d="M 720 360 L 280 200" fill="none" stroke="#60A5FA" stroke-width="3"/>
    <polygon points="280,200 300,200 290,215" fill="#60A5FA"/>
  </g>
  
  <!-- DK to DE (right vertical) -->
  <g id="cell-edge_DK_DE_AB">
    <path d="M 800 210 L 800 310" fill="none" stroke="#4ADE80" stroke-width="3"/>
    <polygon points="800,310 790,295 810,295" fill="#4ADE80"/>
  </g>
  <g id="cell-edge_DK_DE_BA">
    <path d="M 840 310 L 840 210" fill="none" stroke="#60A5FA" stroke-width="3"/>
    <polygon points="840,210 830,225 850,225" fill="#60A5FA"/>
  </g>
  
  <!-- BE to DE (middle horizontal) -->
  <g id="cell-edge_BE_DE_AB">
    <path d="M 280 360 L 720 360" fill="none" stroke="#4ADE80" stroke-width="3"/>
    <polygon points="720,360 705,350 705,370" fill="#4ADE80"/>
  </g>
  <g id="cell-edge_BE_DE_BA">
    <path d="M 720 400 L 280 400" fill="none" stroke="#60A5FA" stroke-width="3"/>
    <polygon points="280,400 295,390 295,410" fill="#60A5FA"/>
  </g>
  
  <!-- BE to FR (left lower vertical) -->
  <g id="cell-edge_BE_FR_AB">
    <path d="M 160 460 L 160 560" fill="none" stroke="#4ADE80" stroke-width="3"/>
    <polygon points="160,560 150,545 170,545" fill="#4ADE80"/>
  </g>
  <g id="cell-edge_BE_FR_BA">
    <path d="M 200 560 L 200 460" fill="none" stroke="#60A5FA" stroke-width="3"/>
    <polygon points="200,460 190,475 210,475" fill="#60A5FA"/>
  </g>
  
  <!-- FR to DE (bottom path) -->
  <g id="cell-edge_FR_DE_AB">
    <path d="M 280 600 L 720 460" fill="none" stroke="#4ADE80" stroke-width="3"/>
    <polygon points="720,460 700,465 705,450" fill="#4ADE80"/>
  </g>
  <g id="cell-edge_FR_DE_BA">
    <path d="M 720 500 L 280 640" fill="none" stroke="#60A5FA" stroke-width="3"/>
    <polygon points="280,640 300,635 295,650" fill="#60A5FA"/>
  </g>
  
  <!-- ============ EDGE LABELS ============ -->
  
  <!-- NL-DK labels -->
  <rect x="460" y="55" width="80" height="28" rx="6" fill="#1E293B" stroke="#475569" stroke-width="1"/>
  <text id="cell-lab_NL_DK_AB" x="500" y="75" fill="#4ADE80" font-family="Arial, sans-serif" font-size="14" text-anchor="middle" font-weight="bold"> </text>
  
  <rect x="460" y="165" width="80" height="28" rx="6" fill="#1E293B" stroke="#475569" stroke-width="1"/>
  <text id="cell-lab_NL_DK_BA" x="500" y="185" fill="#60A5FA" font-family="Arial, sans-serif" font-size="14" text-anchor="middle" font-weight="bold"> </text>
  
  <!-- NL-BE labels -->
  <rect x="90" y="246" width="65" height="28" rx="6" fill="#1E293B" stroke="#475569" stroke-width="1"/>
  <text id="cell-lab_NL_BE_AB" x="122" y="266" fill="#4ADE80" font-family="Arial, sans-serif" font-size="14" text-anchor="middle" font-weight="bold"> </text>
  
  <rect x="205" y="246" width="65" height="28" rx="6" fill="#1E293B" stroke="#475569" stroke-width="1"/>
  <text id="cell-lab_NL_BE_BA" x="237" y="266" fill="#60A5FA" font-family="Arial, sans-serif" font-size="14" text-anchor="middle" font-weight="bold"> </text>
  
  <!-- NL-DE labels -->
  <rect x="420" y="210" width="80" height="28" rx="6" fill="#1E293B" stroke="#475569" stroke-width="1"/>
  <text id="cell-lab_NL_DE_AB" x="460" y="230" fill="#4ADE80" font-family="Arial, sans-serif" font-size="14" text-anchor="middle" font-weight="bold"> </text>
  
  <rect x="520" y="260" width="80" height="28" rx="6" fill="#1E293B" stroke="#475569" stroke-width="1"/>
  <text id="cell-lab_NL_DE_BA" x="560" y="280" fill="#60A5FA" font-family="Arial, sans-serif" font-size="14" text-anchor="middle" font-weight="bold"> </text>
  
  <!-- DK-DE labels -->
  <rect x="735" y="246" width="60" height="28" rx="6" fill="#1E293B" stroke="#475569" stroke-width="1"/>
  <text id="cell-lab_DK_DE_AB" x="765" y="266" fill="#4ADE80" font-family="Arial, sans-serif" font-size="14" text-anchor="middle" font-weight="bold"> </text>
  
  <rect x="845" y="246" width="60" height="28" rx="6" fill="#1E293B" stroke="#475569" stroke-width="1"/>
  <text id="cell-lab_DK_DE_BA" x="875" y="266" fill="#60A5FA" font-family="Arial, sans-serif" font-size="14" text-anchor="middle" font-weight="bold"> </text>
  
  <!-- BE-DE labels -->
  <rect x="460" y="330" width="80" height="28" rx="6" fill="#1E293B" stroke="#475569" stroke-width="1"/>
  <text id="cell-lab_BE_DE_AB" x="500" y="350" fill="#4ADE80" font-family="Arial, sans-serif" font-size="14" text-anchor="middle" font-weight="bold"> </text>
  
  <rect x="460" y="405" width="80" height="28" rx="6" fill="#1E293B" stroke="#475569" stroke-width="1"/>
  <text id="cell-lab_BE_DE_BA" x="500" y="425" fill="#60A5FA" font-family="Arial, sans-serif" font-size="14" text-anchor="middle" font-weight="bold"> </text>
  
  <!-- BE-FR labels -->
  <rect x="90" y="496" width="65" height="28" rx="6" fill="#1E293B" stroke="#475569" stroke-width="1"/>
  <text id="cell-lab_BE_FR_AB" x="122" y="516" fill="#4ADE80" font-family="Arial, sans-serif" font-size="14" text-anchor="middle" font-weight="bold"> </text>
  
  <rect x="205" y="496" width="65" height="28" rx="6" fill="#1E293B" stroke="#475569" stroke-width="1"/>
  <text id="cell-lab_BE_FR_BA" x="237" y="516" fill="#60A5FA" font-family="Arial, sans-serif" font-size="14" text-anchor="middle" font-weight="bold"> </text>
  
  <!-- FR-DE labels -->
  <rect x="420" y="510" width="80" height="28" rx="6" fill="#1E293B" stroke="#475569" stroke-width="1"/>
  <text id="cell-lab_FR_DE_AB" x="460" y="530" fill="#4ADE80" font-family="Arial, sans-serif" font-size="14" text-anchor="middle" font-weight="bold"> </text>
  
  <rect x="520" y="560" width="80" height="28" rx="6" fill="#1E293B" stroke="#475569" stroke-width="1"/>
  <text id="cell-lab_FR_DE_BA" x="560" y="580" fill="#60A5FA" font-family="Arial, sans-serif" font-size="14" text-anchor="middle" font-weight="bold"> </text>
  
  <!-- ============ COUNTRY NODES ============ -->
  
  <!-- NL Node -->
  <g id="cell-box_NL">
    <rect x="60" y="70" width="220" height="140" rx="12" fill="#1E293B" stroke="#475569" stroke-width="2"/>
    <rect x="60" y="70" width="220" height="45" rx="12" fill="#FF6B35"/>
    <rect x="60" y="103" width="220" height="12" fill="#FF6B35"/>
    <text id="cell-txt_NL_code" x="170" y="102" fill="#ffffff" font-family="Arial, sans-serif" font-size="20" text-anchor="middle" font-weight="bold">Netherlands</text>
    
    <text x="80" y="150" fill="#94A3B8" font-family="Arial, sans-serif" font-size="14" font-weight="bold">EXPORT</text>
    <text id="cell-txt_NL_export" x="260" y="150" fill="#4ADE80" font-family="Arial, sans-serif" font-size="16" text-anchor="end" font-weight="bold"> </text>
    
    <text x="80" y="185" fill="#94A3B8" font-family="Arial, sans-serif" font-size="14" font-weight="bold">IMPORT</text>
    <text id="cell-txt_NL_import" x="260" y="185" fill="#60A5FA" font-family="Arial, sans-serif" font-size="16" text-anchor="end" font-weight="bold"> </text>
  </g>
  
  <!-- DK Node -->
  <g id="cell-box_DK">
    <rect x="720" y="70" width="220" height="140" rx="12" fill="#1E293B" stroke="#475569" stroke-width="2"/>
    <rect x="720" y="70" width="220" height="45" rx="12" fill="#C8102E"/>
    <rect x="720" y="103" width="220" height="12" fill="#C8102E"/>
    <text id="cell-txt_DK_code" x="830" y="102" fill="#ffffff" font-family="Arial, sans-serif" font-size="20" text-anchor="middle" font-weight="bold">Denmark</text>
    
    <text x="740" y="150" fill="#94A3B8" font-family="Arial, sans-serif" font-size="14" font-weight="bold">EXPORT</text>
    <text id="cell-txt_DK_export" x="920" y="150" fill="#4ADE80" font-family="Arial, sans-serif" font-size="16" text-anchor="end" font-weight="bold"> </text>
    
    <text x="740" y="185" fill="#94A3B8" font-family="Arial, sans-serif" font-size="14" font-weight="bold">IMPORT</text>
    <text id="cell-txt_DK_import" x="920" y="185" fill="#60A5FA" font-family="Arial, sans-serif" font-size="16" text-anchor="end" font-weight="bold"> </text>
  </g>
  
  <!-- BE Node -->
  <g id="cell-box_BE">
    <rect x="60" y="320" width="220" height="140" rx="12" fill="#1E293B" stroke="#475569" stroke-width="2"/>
    <rect x="60" y="320" width="220" height="45" rx="12" fill="#FFCD00"/>
    <rect x="60" y="353" width="220" height="12" fill="#FFCD00"/>
    <text id="cell-txt_BE_code" x="170" y="352" fill="#1E293B" font-family="Arial, sans-serif" font-size="20" text-anchor="middle" font-weight="bold">Belgium</text>
    
    <text x="80" y="400" fill="#94A3B8" font-family="Arial, sans-serif" font-size="14" font-weight="bold">EXPORT</text>
    <text id="cell-txt_BE_export" x="260" y="400" fill="#4ADE80" font-family="Arial, sans-serif" font-size="16" text-anchor="end" font-weight="bold"> </text>
    
    <text x="80" y="435" fill="#94A3B8" font-family="Arial, sans-serif" font-size="14" font-weight="bold">IMPORT</text>
    <text id="cell-txt_BE_import" x="260" y="435" fill="#60A5FA" font-family="Arial, sans-serif" font-size="16" text-anchor="end" font-weight="bold"> </text>
  </g>
  
  <!-- DE Node -->
  <g id="cell-box_DE">
    <rect x="720" y="320" width="220" height="140" rx="12" fill="#1E293B" stroke="#475569" stroke-width="2"/>
    <rect x="720" y="320" width="220" height="45" rx="12" fill="#5B9BD5"/>
    <rect x="720" y="353" width="220" height="12" fill="#5B9BD5"/>
    <text id="cell-txt_DE_code" x="830" y="352" fill="#ffffff" font-family="Arial, sans-serif" font-size="20" text-anchor="middle" font-weight="bold">Germany</text>
    
    <text x="740" y="400" fill="#94A3B8" font-family="Arial, sans-serif" font-size="14" font-weight="bold">EXPORT</text>
    <text id="cell-txt_DE_export" x="920" y="400" fill="#4ADE80" font-family="Arial, sans-serif" font-size="16" text-anchor="end" font-weight="bold"> </text>
    
    <text x="740" y="435" fill="#94A3B8" font-family="Arial, sans-serif" font-size="14" font-weight="bold">IMPORT</text>
    <text id="cell-txt_DE_import" x="920" y="435" fill="#60A5FA" font-family="Arial, sans-serif" font-size="16" text-anchor="end" font-weight="bold"> </text>
  </g>
  
  <!-- FR Node -->
  <g id="cell-box_FR">
    <rect x="60" y="570" width="220" height="140" rx="12" fill="#1E293B" stroke="#475569" stroke-width="2"/>
    <rect x="60" y="570" width="220" height="45" rx="12" fill="#0055A4"/>
    <rect x="60" y="603" width="220" height="12" fill="#0055A4"/>
    <text id="cell-txt_FR_code" x="170" y="602" fill="#ffffff" font-family="Arial, sans-serif" font-size="20" text-anchor="middle" font-weight="bold">France</text>
    
    <text x="80" y="650" fill="#94A3B8" font-family="Arial, sans-serif" font-size="14" font-weight="bold">EXPORT</text>
    <text id="cell-txt_FR_export" x="260" y="650" fill="#4ADE80" font-family="Arial, sans-serif" font-size="16" text-anchor="end" font-weight="bold"> </text>
    
    <text x="80" y="685" fill="#94A3B8" font-family="Arial, sans-serif" font-size="14" font-weight="bold">IMPORT</text>
    <text id="cell-txt_FR_import" x="260" y="685" fill="#60A5FA" font-family="Arial, sans-serif" font-size="16" text-anchor="end" font-weight="bold"> </text>
  </g>
  
  <!-- Legend -->
  <g>
    <rect x="750" y="570" width="180" height="100" rx="10" fill="#1E293B" stroke="#475569" stroke-width="2"/>
    <text x="840" y="598" fill="#94A3B8" font-family="Arial, sans-serif" font-size="14" text-anchor="middle" font-weight="bold">LEGEND</text>
    <line x1="775" y1="625" x2="820" y2="625" stroke="#4ADE80" stroke-width="3"/>
    <polygon points="820,625 808,618 808,632" fill="#4ADE80"/>
    <text x="835" y="630" fill="#4ADE80" font-family="Arial, sans-serif" font-size="14" font-weight="bold">Export</text>
    <line x1="775" y1="655" x2="820" y2="655" stroke="#60A5FA" stroke-width="3"/>
    <polygon points="820,655 808,648 808,662" fill="#60A5FA"/>
    <text x="835" y="660" fill="#60A5FA" font-family="Arial, sans-serif" font-size="14" font-weight="bold">Import</text>
  </g>
  
</svg>
